#define close_width 8
#define close_height 8
static unsigned char close_bits[] = {
   0x41, 0x22, 0x14, 0x08, 0x14, 0x22, 0x41, 0x00 };
