#define iconify_width 8
#define iconify_height 8
static unsigned char iconify_bits[] = {
   0x7f, 0x00, 0x00, 0x08, 0x14, 0x22, 0x41, 0x00 };
