#define max_toggled_width 8
#define max_toggled_height 8
static unsigned char max_toggled_bits[] = {
   0x55, 0x00, 0x41, 0x00, 0x41, 0x00, 0x55, 0x00 };
